# xmcd
# 
# Track frame offsets:
#     182
#     11535
#     28682
#     39460
#     65045
#     76955
#     91152
#     100925
#     118985
# 
# Disc length: 1694
# 
# Revision: 0
# Processed by: cddbd v1.5.2PL0 Copyright (c) Steve Scherf et al.
# Submitted via: FoxEncoder v1.6.0
# 
DISCID=6d069c09
DTITLE=James Cotton - V-8 Ford Blues
DYEAR=2005
DGENRE=Blues
TTITLE0=Good Time Charlie
TTITLE1=There Is Something On Your Mind
TTITLE2=Turn On Your Lovelight
TTITLE3=Jelly, Jelly
TTITLE4=South Side Boogie
TTITLE5=So Glad I'm Living
TTITLE6=Diggin' My Potatoes
TTITLE7=V-8 Ford Blues
TTITLE8=Polly Put The Kettle On
EXTD=
EXTT0=
EXTT1=
EXTT2=
EXTT3=
EXTT4=
EXTT5=
EXTT6=
EXTT7=
EXTT8=
PLAYORDER=
